<svg width="168" height="104" fill="none" xmlns="http://www.w3.org/2000/svg"><g clip-path="url(#a)"><mask id="b" style="mask-type:luminance" maskUnits="userSpaceOnUse" x="32" y="21" width="103" height="62"><path d="M134.117 21.466h-102v61h102v-61z" fill="#fff"/></mask><g mask="url(#b)"><path d="M60.86 43.606c0 1.256.144 2.26.36 3.014.286.753.61 1.543 1.076 2.44.18.287.25.538.25.79 0 .322-.214.681-.645 1.004l-2.153 1.435c-.322.215-.61.323-.897.323-.322 0-.681-.18-1.004-.466-.467-.503-.897-1.04-1.22-1.58a25.29 25.29 0 0 1-1.04-2.009c-2.655 3.122-5.956 4.665-9.974 4.665-2.835 0-5.13-.825-6.781-2.44-1.65-1.614-2.512-3.803-2.512-6.53 0-2.871 1.005-5.24 3.086-6.998 2.08-1.758 4.807-2.655 8.323-2.655 1.148 0 2.332.108 3.588.287 1.256.18 2.547.43 3.91.754v-2.476c0-2.584-.537-4.378-1.578-5.418-1.076-1.04-2.906-1.543-5.525-1.543-1.184 0-2.404.143-3.66.43-1.255.323-2.475.682-3.659 1.149-.538.25-.933.358-1.184.43-.251.072-.395.108-.538.108-.466 0-.718-.323-.718-1.04v-1.651c0-.539.072-.933.252-1.184.179-.252.466-.467.932-.718 1.184-.646 2.584-1.148 4.27-1.543 1.65-.43 3.408-.646 5.274-.646 4.054 0 6.996.933 8.897 2.763 1.866 1.83 2.799 4.629 2.799 8.36v10.98h.072v-.035zm-13.776 5.167c1.112 0 2.26-.216 3.48-.61 1.22-.395 2.296-1.148 3.229-2.189a5.584 5.584 0 0 0 1.148-2.189c.215-.825.323-1.794.323-2.942v-1.436c-.969-.25-2.045-.43-3.122-.574a24.26 24.26 0 0 0-3.193-.215c-2.26 0-3.946.43-5.058 1.364-1.113.932-1.65 2.188-1.65 3.91 0 1.58.394 2.8 1.255 3.589.86.897 2.045 1.292 3.588 1.292zm27.23 3.66c-.61 0-1.004-.108-1.29-.323-.288-.215-.503-.682-.719-1.328l-7.928-26.23c-.216-.682-.323-1.112-.323-1.363 0-.539.287-.861.825-.861h3.337c.645 0 1.076.107 1.327.322.287.216.466.682.682 1.328l5.668 22.498 5.274-22.462c.18-.682.36-1.112.646-1.328.287-.215.754-.323 1.363-.323h2.727c.646 0 1.076.108 1.363.323.287.216.503.682.646 1.328l5.346 22.713 5.884-22.713c.215-.682.43-1.112.682-1.328.287-.215.717-.323 1.327-.323h3.157c.539 0 .861.287.861.861 0 .18-.035.323-.071.539-.036.215-.108.466-.251.861l-8.18 26.23c-.216.682-.431 1.112-.718 1.328-.287.215-.718.322-1.292.322h-2.906c-.646 0-1.076-.107-1.363-.322-.287-.252-.503-.682-.646-1.364L84.468 28.93 79.23 50.782c-.18.682-.359 1.113-.646 1.364-.287.25-.753.323-1.363.323h-2.906v-.036zm43.592.933a23.47 23.47 0 0 1-5.238-.61c-1.686-.395-3.014-.861-3.911-1.364-.538-.323-.933-.646-1.04-.933a2.331 2.331 0 0 1-.216-.933v-1.722c0-.718.288-1.04.79-1.04.215 0 .394.035.61.107.215.072.502.215.861.323 1.148.502 2.404.933 3.731 1.184 1.363.287 2.691.395 4.054.395 2.153 0 3.803-.359 4.951-1.113 1.148-.753 1.758-1.83 1.758-3.229a3.34 3.34 0 0 0-.932-2.368c-.61-.646-1.758-1.22-3.409-1.759L115 38.726c-2.476-.79-4.305-1.938-5.418-3.445-1.112-1.507-1.686-3.158-1.686-4.916 0-1.435.323-2.691.933-3.767a9.107 9.107 0 0 1 2.44-2.8c1.004-.789 2.188-1.363 3.516-1.758 1.327-.394 2.762-.574 4.269-.574.754 0 1.543.036 2.26.144.79.108 1.507.251 2.189.359.682.18 1.327.323 1.937.538.61.215 1.077.395 1.435.61.467.287.826.538 1.005.861.215.287.323.646.323 1.112v1.58c0 .717-.287 1.076-.789 1.076-.287 0-.718-.144-1.292-.395-1.937-.897-4.09-1.328-6.53-1.328-1.937 0-3.444.323-4.52.933-1.041.646-1.579 1.615-1.579 3.014 0 .933.323 1.759 1.005 2.404.681.646 1.937 1.292 3.731 1.866l4.807 1.543c2.44.79 4.198 1.866 5.274 3.266 1.077 1.4 1.543 2.978 1.543 4.736 0 1.471-.323 2.799-.897 3.947-.61 1.148-1.435 2.189-2.475 2.978-1.041.862-2.296 1.472-3.767 1.902-1.471.502-3.05.754-4.808.754z" fill="#252F3E"/><path d="M124.325 69.836c-11.158 8.253-27.375 12.63-41.331 12.63-19.554 0-37.134-7.212-50.444-19.233-1.04-.933-.108-2.224 1.148-1.507 14.387 8.36 32.11 13.384 50.48 13.384 12.377 0 25.975-2.583 38.496-7.858 1.902-.825 3.48 1.22 1.651 2.584zm4.664-5.275c-1.435-1.83-9.436-.897-13.06-.43-1.076.143-1.255-.826-.287-1.544 6.386-4.485 16.863-3.193 18.083-1.686 1.219 1.543-.323 12.02-6.315 17.044-.933.79-1.794.359-1.399-.646 1.363-3.373 4.377-10.944 2.978-12.738z" fill="#F90"/></g></g><defs><clipPath id="a"><path fill="#fff" transform="translate(31.797 21)" d="M0 0h103v62H0z"/></clipPath></defs></svg>