<svg width="168" height="104" fill="none" xmlns="http://www.w3.org/2000/svg"><g clip-path="url(#a)"><mask id="b" style="mask-type:luminance" maskUnits="userSpaceOnUse" x="6" y="30" width="156" height="45"><path d="M161.617 30.966h-155v44h155v-44z" fill="#fff"/></mask><g mask="url(#b)" fill="#008AD7"><path d="M91.595 70.126H86.92l-2.33-6.389H74.54l-2.154 6.39h-4.675l9.525-25.028h4.658l9.7 25.027zm-8.09-9.768-3.59-9.944a10.056 10.056 0 0 1-.35-1.601 12.415 12.415 0 0 1-.35 1.601l-3.414 9.944h7.704zm24.445-6.389-9.701 12.954h9.701v3.203H92.488V68.56l10.068-13.147h-8.983V52.21h14.552v1.76h-.175zm19.383 16.157h-4.132v-2.833a6.027 6.027 0 0 1-5.568 3.203c-4.308 0-6.462-2.482-6.462-7.638V52.21h4.133v10.295c0 3.204 1.261 4.788 3.764 4.788a3.909 3.909 0 0 0 3.047-1.25 5.662 5.662 0 0 0 1.243-3.555V52.209h4.133l-.158 17.917zM143.127 56.1a3.843 3.843 0 0 0-2.153-.528c-1.244 0-2.154.528-3.047 1.602-.893 1.073-1.243 2.499-1.243 4.435v8.518h-4.133V52.21h4.133v3.732a6.966 6.966 0 0 1 1.803-3.01 4.108 4.108 0 0 1 2.837-1.073c.56 0 1.121.105 1.611.352l.192 3.89zm18.316 6.213h-12.397c0 1.602.543 3.01 1.611 3.907.893.88 2.329 1.426 4.132 1.426a8.62 8.62 0 0 0 5.411-1.778v3.203c-1.629 1.074-3.782 1.602-6.479 1.602a8.434 8.434 0 0 1-6.286-2.5c-1.611-1.6-2.329-3.906-2.329-6.916a9.458 9.458 0 0 1 2.487-6.74 8.188 8.188 0 0 1 6.286-2.658c2.486 0 4.307.704 5.743 2.305 1.436 1.602 1.979 3.731 1.979 6.565l-.158 1.584zm-3.94-2.834c0-1.425-.35-2.657-1.068-3.379a3.36 3.36 0 0 0-2.871-1.25 3.909 3.909 0 0 0-3.047 1.25c-.893.88-1.243 1.954-1.436 3.38h8.422zM41.462 37.602l-8.3 16.808 14.622 17.019-27.141 3.097 42.094.44-21.275-37.364zm-1.646-6.636L20.766 47 6.616 70.989l12.047-1.215 21.152-38.808z"/></g></g><defs><clipPath id="a"><path fill="#fff" transform="translate(5.797 30)" d="M0 0h156v45H0z"/></clipPath></defs></svg>