<svg width="168" height="104" fill="none" xmlns="http://www.w3.org/2000/svg"><g clip-path="url(#a)"><mask id="b" style="mask-type:luminance" maskUnits="userSpaceOnUse" x="24" y="8" width="119" height="88"><path d="M142.117 8.466h-118v87h118v-87z" fill="#fff"/></mask><g mask="url(#b)"><path d="M92.446 24.091h2.115l6.023-6.125.298-2.602a26.919 26.919 0 0 0-12.12-6.256 26.645 26.645 0 0 0-13.583.52 27.005 27.005 0 0 0-11.623 7.166 27.662 27.662 0 0 0-6.736 12.007 3.212 3.212 0 0 1 2.115-.13l12.052-2.021s.608-1.032.93-.97a14.936 14.936 0 0 1 9.975-4.952 14.86 14.86 0 0 1 10.597 3.363h-.043z" fill="#EA4335"/><path d="M109.163 28.8a27.656 27.656 0 0 0-8.18-13.412l-8.454 8.598a15.26 15.26 0 0 1 4.13 5.417c.956 2.101 1.43 4.395 1.388 6.71v1.526a7.473 7.473 0 0 1 5.186 2.317 7.727 7.727 0 0 1 2.13 5.338 7.727 7.727 0 0 1-2.13 5.337 7.473 7.473 0 0 1-5.186 2.318H82.993l-1.5 1.55v9.18l1.5 1.526h15.054a19.363 19.363 0 0 0 11.696-3.838 19.909 19.909 0 0 0 7.143-10.17 20.236 20.236 0 0 0-.223-12.496 19.869 19.869 0 0 0-7.5-9.9z" fill="#4285F4"/><path d="M67.92 65.113h15.053V52.856H67.92a7.39 7.39 0 0 1-3.082-.692l-2.115.668-6.077 6.125-.529 2.15a19.235 19.235 0 0 0 11.803 4.006z" fill="#34A853"/><path d="M67.916 25.358a19.357 19.357 0 0 0-11.35 3.776 19.889 19.889 0 0 0-7.082 9.78 20.23 20.23 0 0 0-.177 12.143 19.915 19.915 0 0 0 6.794 9.989l8.734-8.876a7.546 7.546 0 0 1-2.83-2.26 7.715 7.715 0 0 1-1.474-3.34 7.776 7.776 0 0 1 .22-3.652 7.676 7.676 0 0 1 1.862-3.131 7.502 7.502 0 0 1 3.079-1.894 7.404 7.404 0 0 1 3.592-.223 7.465 7.465 0 0 1 3.282 1.498 7.634 7.634 0 0 1 2.223 2.878l8.728-8.857a19.609 19.609 0 0 0-6.896-5.78 19.265 19.265 0 0 0-8.705-2.051z" fill="#FBBC05"/><path d="M32.34 90.67a7.868 7.868 0 0 1-3.136-.596 7.98 7.98 0 0 1-2.656-1.796 8.088 8.088 0 0 1-1.798-2.658 8.202 8.202 0 0 1 0-6.322 8.09 8.09 0 0 1 1.798-2.658 7.982 7.982 0 0 1 2.647-1.84 7.87 7.87 0 0 1 3.145-.632 7.641 7.641 0 0 1 3 .576 7.745 7.745 0 0 1 2.549 1.71l-1.562 1.614a5.578 5.578 0 0 0-3.993-1.608 5.486 5.486 0 0 0-2.245.454 5.567 5.567 0 0 0-1.875 1.333 6.06 6.06 0 0 0-1.696 4.212 6.06 6.06 0 0 0 1.695 4.212 5.84 5.84 0 0 0 4.086 1.745 5.836 5.836 0 0 0 4.125-1.646 4.78 4.78 0 0 0 1.216-2.775h-5.276v-2.28h7.445c.072.459.1.925.085 1.39.047.964-.1 1.928-.43 2.833a7.166 7.166 0 0 1-1.49 2.433 7.469 7.469 0 0 1-2.577 1.757c-.97.396-2.012.58-3.057.542zm17.303-1.49a5.325 5.325 0 0 1-3.717 1.519 5.325 5.325 0 0 1-3.716-1.519 5.475 5.475 0 0 1-1.519-3.791c0-1.417.545-2.778 1.519-3.792a5.331 5.331 0 0 1 3.716-1.516c1.385 0 2.716.543 3.717 1.516a5.463 5.463 0 0 1 1.523 3.792c0 1.418-.547 2.78-1.523 3.791zm-5.792-1.49c.515.56 1.227.889 1.98.914a2.817 2.817 0 0 0 2.037-.777l.134-.136a3.463 3.463 0 0 0 .875-2.306c0-.852-.312-1.674-.875-2.305a2.887 2.887 0 0 0-.924-.657 2.848 2.848 0 0 0-3.16.57l-.085.087a3.45 3.45 0 0 0-.88 2.305c0 .854.314 1.676.88 2.306h.018zm17.211 1.49a5.325 5.325 0 0 1-3.716 1.519 5.325 5.325 0 0 1-3.717-1.519 5.475 5.475 0 0 1-1.518-3.791c0-1.417.545-2.778 1.518-3.792a5.325 5.325 0 0 1 3.717-1.518c1.385 0 2.716.544 3.716 1.518a5.475 5.475 0 0 1 1.519 3.792 5.475 5.475 0 0 1-1.519 3.791zm-5.792-1.49c.516.56 1.228.889 1.981.914a2.817 2.817 0 0 0 2.037-.777l.133-.136a3.463 3.463 0 0 0 .876-2.306c0-.852-.313-1.674-.876-2.305a2.864 2.864 0 0 0-2.021-.901 2.86 2.86 0 0 0-2.057.815l-.085.086a3.45 3.45 0 0 0-.88 2.305c0 .854.314 1.676.88 2.306h.012zm13.298 7.77a4.549 4.549 0 0 1-2.924-.945 5.463 5.463 0 0 1-1.701-2.195l2-.846c.217.519.557.975.99 1.328.463.38 1.045.58 1.64.563a2.6 2.6 0 0 0 1.108-.176c.352-.139.671-.353.935-.628a3.3 3.3 0 0 0 .73-2.317v-.767h-.08a3.353 3.353 0 0 1-1.224.92 3.3 3.3 0 0 1-1.499.273 4.696 4.696 0 0 1-1.913-.402 4.765 4.765 0 0 1-1.593-1.15 5.425 5.425 0 0 1-1.5-3.751c0-1.401.538-2.748 1.5-3.752a4.755 4.755 0 0 1 1.591-1.157 4.684 4.684 0 0 1 1.915-.406 3.728 3.728 0 0 1 1.617.364 3.25 3.25 0 0 1 1.143.847h.079v-.847h2.175v9.512a5.65 5.65 0 0 1-.28 2.22 5.583 5.583 0 0 1-1.117 1.928 4.901 4.901 0 0 1-1.65 1.06 4.838 4.838 0 0 1-1.924.324h-.018zm.158-6.854c.374.008.746-.067 1.088-.221.342-.154.647-.382.893-.67.541-.631.826-1.449.796-2.286a3.404 3.404 0 0 0-.796-2.33 2.55 2.55 0 0 0-.893-.67 2.51 2.51 0 0 0-1.088-.22 2.678 2.678 0 0 0-1.121.22 2.718 2.718 0 0 0-.933.67 3.288 3.288 0 0 0-.876 2.311c-.009.421.063.84.214 1.233.15.392.375.75.662 1.054a2.68 2.68 0 0 0 2.079.915l-.025-.006zm8.678-13.827v15.594h-2.266V74.78h2.266zm6.272 15.891a4.907 4.907 0 0 1-1.974-.366 4.973 4.973 0 0 1-1.672-1.13 5.175 5.175 0 0 1-1.123-1.736 5.244 5.244 0 0 1-.36-2.046 5.32 5.32 0 0 1 .333-2.057 5.253 5.253 0 0 1 1.095-1.763c.45-.482.996-.864 1.6-1.12a4.64 4.64 0 0 1 1.907-.37c.602-.007 1.2.11 1.756.347.5.204.957.507 1.343.89.331.325.625.688.876 1.081.202.332.375.682.516 1.045l.237.618-7.031 2.899c.212.496.567.915 1.018 1.202.452.287.978.428 1.51.405a2.958 2.958 0 0 0 1.476-.392 3.02 3.02 0 0 0 1.094-1.08l1.757 1.206a5.804 5.804 0 0 1-1.684 1.625c-.8.51-1.73.769-2.674.742zm-2.929-5.47 4.668-1.972a1.622 1.622 0 0 0-.73-.81 2.345 2.345 0 0 0-1.215-.314 2.69 2.69 0 0 0-1.884.846 2.831 2.831 0 0 0-.657 1.048 2.87 2.87 0 0 0-.152 1.233l-.03-.03zM100.192 90.67a7.12 7.12 0 0 1-2.777-.51 7.214 7.214 0 0 1-2.373-1.553 7.353 7.353 0 0 1-1.607-2.358 7.456 7.456 0 0 1-.597-2.805v-.296a7.425 7.425 0 0 1 1.997-5.246 7.177 7.177 0 0 1 5.059-2.276h.292a6.451 6.451 0 0 1 2.865.572 6.56 6.56 0 0 1 2.337 1.783l-1.264 1.236a4.79 4.79 0 0 0-1.747-1.408 4.706 4.706 0 0 0-2.185-.447 5.29 5.29 0 0 0-2.11.39c-.671.273-1.28.68-1.792 1.199a6.24 6.24 0 0 0-1.583 4.16 6.24 6.24 0 0 0 1.583 4.16 5.354 5.354 0 0 0 1.791 1.198c.67.274 1.388.406 2.111.39a5.5 5.5 0 0 0 2.428-.535 5.594 5.594 0 0 0 1.96-1.554l1.264 1.285a6.923 6.923 0 0 1-2.431 1.854 7.296 7.296 0 0 1-3.221.76zM109.245 90.38h-1.823V75.965h1.823v14.413zM112.241 81.702a5.039 5.039 0 0 1 3.58-1.5c1.341 0 2.628.539 3.58 1.5a5.686 5.686 0 0 1 1.405 3.749c0 1.382-.5 2.716-1.405 3.748a5.039 5.039 0 0 1-3.58 1.5 5.039 5.039 0 0 1-3.58-1.5 5.686 5.686 0 0 1-1.405-3.748c0-1.383.5-2.717 1.405-3.75zm1.349 6.335c.275.3.605.541.973.71a2.994 2.994 0 0 0 3.355-.586l.121-.124a4.02 4.02 0 0 0 .939-2.587 4.02 4.02 0 0 0-.939-2.586 3.034 3.034 0 0 0-.972-.71 2.994 2.994 0 0 0-3.355.586l-.122.124a3.996 3.996 0 0 0-.944 2.583c0 .949.335 1.866.944 2.584v.006zM130.837 90.38h-1.757v-1.367h-.055c-.312.52-.754.947-1.282 1.237a3.527 3.527 0 0 1-1.823.488 3.364 3.364 0 0 1-1.503-.243 3.41 3.41 0 0 1-1.25-.882 4.523 4.523 0 0 1-.942-3.016v-6.07h1.823v5.73c0 1.838.798 2.756 2.395 2.756a2.2 2.2 0 0 0 1.016-.222c.317-.155.593-.384.807-.668.471-.606.722-1.36.711-2.132v-5.464h1.823v9.852h.037zM137.005 90.67a4.19 4.19 0 0 1-1.785-.391 4.254 4.254 0 0 1-1.46-1.117 5.798 5.798 0 0 1-1.362-3.74c0-1.371.483-2.698 1.362-3.739a4.253 4.253 0 0 1 1.46-1.117 4.19 4.19 0 0 1 1.785-.39c.69-.011 1.371.154 1.981.481.539.274.994.69 1.319 1.205h.079l-.079-1.365v-4.562h1.824V90.35h-1.757v-1.366h-.079a3.37 3.37 0 0 1-1.319 1.205 4.056 4.056 0 0 1-1.969.482zm.298-1.687c.41.005.817-.078 1.193-.244a2.9 2.9 0 0 0 .989-.72 4.272 4.272 0 0 0 .876-2.597c0-.94-.308-1.853-.876-2.595a2.946 2.946 0 0 0-2.054-.98 2.938 2.938 0 0 0-2.328.98 4.244 4.244 0 0 0-.877 2.586c0 .938.309 1.849.877 2.587.273.32.611.577.991.752.38.175.792.264 1.209.261v-.03z" fill="#5F6368"/></g></g><defs><clipPath id="a"><path fill="#fff" transform="translate(23.797 8)" d="M0 0h119v88H0z"/></clipPath></defs></svg>